#!OML:ASF E:\emotionWalksFemale\Project 1\Capture day 1\Session 1\Female1.ASF
:FULLY-SPECIFIED
:DEGREES
2152
root 10.0815 15.3893 -2.90603 1.41185 -0.978653 -0.86658
lowerback 7.08815 -0.173205 5.59723
upperback -1.79115 0.532912 4.31173
thorax -5.86071 0.146506 1.30355
lowerneck -4.28924 -5.28884 -5.13638
upperneck 41.987 -11.8456 10.9265
head 17.1824 -4.45545 4.11562
rclavicle -8.44835e-016 -5.56597e-014
rhumerus -39.6691 -3.83903 -76.652
rradius 29.1957
rwrist 21.2935
rhand -10.1215 -50.7513
rfingers 7.12502
rthumb 15.8667 -80.1212
lclavicle -8.44835e-016 -5.56597e-014
lhumerus -37.6563 8.77838 83.6945
lradius 33.4423
lwrist -15.3453
lhand -3.93831 -33.7255
lfingers 7.12502
lthumb 21.8132 -4.93485
rfemur 3.02317 17.6007 34.1523
rtibia 18.4044
rfoot -20.6599 -28.6223
rtoes 5.73962
lfemur -32.6688 -14.5158 -19.5388
ltibia 36.3758
lfoot -17.0062 8.97138
ltoes -16.5207
2153
root 10.0788 15.3854 -2.83698 1.36728 -1.1176 -1.08062
lowerback 7.19393 -0.198606 5.55923
upperback -1.79413 0.511455 4.42313
thorax -5.92646 0.13833 1.44531
lowerneck -4.26125 -5.23572 -5.25206
upperneck 42.0575 -11.7648 10.9474
head 17.216 -4.43995 4.16489
rclavicle 9.21864e-015 7.15625e-014
rhumerus -39.6259 -3.84201 -76.6267
rradius 28.902
rwrist 21.6099
rhand -10.0177 -50.5072
rfingers 7.12502
rthumb 15.9666 -79.8691
lclavicle 9.21864e-015 7.15625e-014
lhumerus -37.9095 9.0964 83.5557
lradius 33.5052
lwrist -15.3583
lhand -3.74085 -33.5653
lfingers 7.12502
lthumb 22.0028 -4.79679
rfemur 3.59325 17.5994 34.4819
rtibia 17.9748
rfoot -20.719 -28.443
rtoes 7.01671
lfemur -32.6797 -15.2288 -19.1172
ltibia 35.3218
lfoot -17.1535 9.56096
ltoes -16.2417
2154
root 10.077 15.3883 -2.76592 1.31633 -1.27135 -1.16533
lowerback 7.22562 -0.165799 5.4795
upperback -1.74221 0.546187 4.41443
thorax -5.8892 0.159084 1.47567
lowerneck -4.42555 -5.24484 -5.15655
upperneck 42.2715 -11.7907 10.8411
head 17.3714 -4.43837 4.10224
rclavicle -6.93262e-015 -1.74931e-014
rhumerus -39.549 -3.8988 -76.7215
rradius 28.6865
rwrist 21.7412
rhand -9.57046 -50.7389
rfingers 7.12502
rthumb 16.3973 -80.0658
lclavicle -6.93262e-015 -1.74931e-014
lhumerus -38.0177 9.1789 83.4371
lradius 33.6296
lwrist -15.3226
lhand -3.54393 -33.5163
lfingers 7.12502
lthumb 22.1919 -4.77022
rfemur 4.12817 17.4876 34.6535
rtibia 17.5399
rfoot -20.4205 -28.3307
rtoes 7.02361
lfemur -32.5991 -15.9169 -18.8504
ltibia 34.3115
lfoot -17.2133 10.3498
ltoes -17.9658
2155
root 10.077 15.392 -2.69198 1.30177 -1.53882 -1.24321
lowerback 7.23208 -0.0906993 5.39806
upperback -1.75727 0.638467 4.38667
thorax -5.90749 0.206324 1.48086
lowerneck -4.43492 -5.26834 -5.0967
upperneck 42.4107 -11.8687 10.843
head 17.4664 -4.45967 4.0882
rclavicle -1.27719e-014 9.54166e-015
rhumerus -39.749 -3.98347 -76.7774
rradius 28.7836
rwrist 22.066
rhand -8.84593 -51.2616
rfingers 7.12502
rthumb 17.0947 -80.5295
lclavicle -1.27719e-014 9.54166e-015
lhumerus -38.2077 9.18865 83.2626
lradius 33.7578
lwrist -15.2014
lhand -3.25413 -33.7418
lfingers 7.12502
lthumb 22.47 -5.02899
rfemur 4.55768 17.2395 34.7518
rtibia 17.1657
rfoot -20.0403 -28.0992
rtoes 6.63283
lfemur -32.4993 -16.5667 -18.5636
ltibia 33.3374
lfoot -17.0603 11.2495
ltoes -19.1939
2156
root 10.0758 15.391 -2.61641 1.35885 -1.76985 -1.25984
lowerback 7.14681 -0.0544677 5.22553
upperback -1.83431 0.666655 4.35831
thorax -5.94055 0.224586 1.54458
lowerneck -4.18422 -5.25276 -5.15654
upperneck 42.3239 -11.8885 10.992
head 17.3746 -4.47535 4.16728
rclavicle -3.2054e-015 4.77083e-015
rhumerus -40.1065 -3.96453 -76.8663
rradius 29.0208
rwrist 22.4316
rhand -8.51401 -51.4452
rfingers 7.12502
rthumb 17.4142 -80.6852
lclavicle -3.2054e-015 4.77083e-015
lhumerus -38.6539 9.19671 83.0748
lradius 34.1413
lwrist -14.9156
lhand -3.02897 -33.567
lfingers 7.12502
lthumb 22.6862 -4.8805
rfemur 4.91607 16.9562 34.7633
rtibia 16.8621
rfoot -19.8929 -27.82
rtoes 6.724
lfemur -32.4989 -17.2861 -18.2876
ltibia 32.4213
lfoot -17.1799 11.9795
ltoes -17.1521
2157
root 10.0768 15.3876 -2.54374 1.44811 -1.96457 -1.29581
lowerback 7.11889 -0.0423027 5.13389
upperback -1.89471 0.672855 4.30575
thorax -5.9882 0.228654 1.54049
lowerneck -4.0875 -5.23754 -5.15954
upperneck 42.205 -11.8918 11.089
head 17.2902 -4.47604 4.20697
rclavicle 1.31446e-014 -2.22639e-014
rhumerus -40.2613 -3.87239 -77.0952
rradius 29.0134
rwrist 22.4472
rhand -8.65299 -51.1573
rfingers 7.12502
rthumb 17.2804 -80.409
lclavicle 1.31446e-014 -2.22639e-014
lhumerus -39.0547 9.23318 82.8734
lradius 34.6425
lwrist -14.4743
lhand -2.97342 -33.6172
lfingers 7.12502
lthumb 22.7395 -4.93721
rfemur 5.26077 16.6978 34.7891
rtibia 16.5704
rfoot -19.6867 -27.492
rtoes 6.86113
lfemur -32.5862 -18.0636 -17.9532
ltibia 31.6144
lfoot -17.8956 12.5218
ltoes -12.5434
2158
root 10.0799 15.3845 -2.47019 1.46643 -2.28041 -1.49535
lowerback 7.35621 0.0494671 5.30065
upperback -2.03792 0.835595 4.21042
thorax -6.27105 0.294862 1.33004
lowerneck -3.94242 -5.24867 -4.94941
upperneck 42.2339 -11.9534 11.0723
head 17.262 -4.47742 4.15527
rclavicle 4.88265e-015 -3.18055e-015
rhumerus -40.4733 -4.05847 -77.2522
rradius 28.8615
rwrist 22.8515
rhand -8.35946 -51.0246
rfingers 7.12502
rthumb 17.5629 -80.2513
lclavicle 4.88265e-015 -3.18055e-015
lhumerus -39.4414 9.04181 82.6205
lradius 34.8664
lwrist -14.059
lhand -2.84085 -34.0352
lfingers 7.12502
lthumb 22.8667 -5.37089
rfemur 5.63848 16.4154 34.9806
rtibia 16.3191
rfoot -19.0541 -27.0491
rtoes 6.30995
lfemur -32.6291 -18.8454 -17.4148
ltibia 30.9175
lfoot -18.4426 13.393
ltoes -10.3505
2159
root 10.0823 15.3826 -2.39159 1.48974 -2.61438 -1.69413
lowerback 7.02008 0.157374 5.40834
upperback -1.86407 0.944284 4.14356
thorax -5.88963 0.350616 1.18349
lowerneck -3.95631 -5.236 -4.77938
upperneck 42.1072 -11.9752 11.148
head 17.1888 -4.45493 4.14687
rclavicle -1.00262e-014 1.59028e-015
rhumerus -40.2226 -4.42526 -77.3339
rradius 28.8448
rwrist 23.5038
rhand -7.61477 -51.45
rfingers 7.12502
rthumb 18.2795 -80.6111
lclavicle -1.00262e-014 1.59028e-015
lhumerus -39.3468 8.98655 82.3967
lradius 34.9052
lwrist -13.812
lhand -2.54212 -34.2076
lfingers 7.12502
lthumb 23.1533 -5.57905
rfemur 5.97594 16.0335 35.142
rtibia 16.1463
rfoot -18.246 -26.5663
rtoes 5.36413
lfemur -32.6901 -19.7064 -16.8268
ltibia 30.295
lfoot -18.4978 14.62
ltoes -12.1369
2160
root 10.0833 15.3794 -2.31741 1.60283 -2.8753 -1.80464
lowerback 6.86734 0.181671 5.34121
upperback -1.84628 0.955663 4.14112
thorax -5.78388 0.360418 1.21682
lowerneck -4.09377 -5.18295 -4.86273
upperneck 42.083 -11.9031 11.2131
head 17.2123 -4.4295 4.19867
rclavicle -1.2101e-014 -1.27222e-014
rhumerus -40.2607 -4.47588 -77.417
rradius 29.0237
rwrist 23.654
rhand -7.06701 -51.5766
rfingers 7.12502
rthumb 18.8064 -80.6874
lclavicle -1.2101e-014 -1.27222e-014
lhumerus -39.516 9.1044 82.1713
lradius 35.0839
lwrist -13.4638
lhand -2.38049 -34.2382
lfingers 7.12502
lthumb 23.3084 -5.62914
rfemur 6.18656 15.7897 35.2285
rtibia 15.9772
rfoot -17.6007 -26.381
rtoes 4.48339
lfemur -32.8724 -20.4891 -16.3061
ltibia 29.7583
lfoot -18.9468 15.5769
ltoes -12.2053
2161
root 10.0848 15.3752 -2.24786 1.75521 -3.11295 -1.85002
lowerback 6.87465 0.194923 5.26716
upperback -1.92428 0.96927 4.0854
thorax -5.86999 0.366475 1.19892
lowerneck -4.24556 -5.15255 -4.94857
upperneck 42.2059 -11.8799 11.2467
head 17.3324 -4.42535 4.2382
rclavicle 5.09386e-015 1.59028e-014
rhumerus -40.2942 -4.37122 -77.6704
rradius 28.9579
rwrist 23.3028
rhand -7.08157 -51.1868
rfingers 7.12502
rthumb 18.7924 -80.299
lclavicle 5.09386e-015 1.59028e-014
lhumerus -39.6075 9.15837 81.9482
lradius 35.094
lwrist -13.15
lhand -2.69805 -34.3441
lfingers 7.12502
lthumb 23.0037 -5.69679
rfemur 6.30504 15.7626 35.2738
rtibia 15.817
rfoot -17.0341 -26.4658
rtoes 4.08622
lfemur -33.1107 -21.2805 -15.8149
ltibia 29.2826
lfoot -19.9111 16.4418
ltoes -8.6033
2162
root 10.0875 15.3731 -2.17207 1.90904 -3.33139 -1.99045
lowerback 6.77073 0.243502 5.34494
upperback -2.00432 1.03061 3.96338
thorax -5.8904 0.390291 1.02135
lowerneck -3.97812 -5.12036 -4.77499
upperneck 42.1697 -11.8847 11.3045
head 17.2363 -4.4078 4.23615
rclavicle -3.36692e-015 1.90833e-014
rhumerus -40.2605 -4.34435 -78.0584
rradius 28.7242
rwrist 22.9939
rhand -7.54617 -50.7423
rfingers 7.12502
rthumb 18.3455 -79.8972
lclavicle -3.36692e-015 1.90833e-014
lhumerus -39.6884 9.04368 81.6442
lradius 35.0682
lwrist -12.8987
lhand -3.13557 -34.492
lfingers 7.12502
lthumb 22.5839 -5.79304
rfemur 6.44487 15.6772 35.4031
rtibia 15.7444
rfoot -16.6352 -26.4087
rtoes 4.19061
lfemur -33.3434 -22.3541 -15.1319
ltibia 28.8363
lfoot -20.6148 17.6913
ltoes -6.64523
